<svg xmlns="http://www.w3.org/2000/svg" width="19" height="19"><path fill-rule="evenodd" d="M9.552 17c-5 .035-7.517-2.447-7.552-7.448-.035-5 2.448-7.517 7.447-7.552 5-.035 7.518 2.447 7.553 7.448.035 5-2.448 7.517-7.448 7.552zM9.5 3.835c3.8 0 5.7 1.902 5.7 5.7 0 3.8-1.9 5.7-5.7 5.7-3.8 0-5.7-1.9-5.7-5.7 0-3.798 1.9-5.7 5.7-5.7zm0 1.365c.347 0 .63.238.63.532v3.55c0 .294-.283.532-.63.532-.348 0-.63-.238-.63-.532v-3.55c0-.294.282-.532.63-.532zM6.563 8.976h3.562v1.246l-3.562.013a.63.63 0 010-1.259z"/></svg>